<svg width="22" height="22" viewBox="0 0 22 22" fill="none" xmlns="http://www.w3.org/2000/svg">
  <path d="M11 10C11.5523 10 12 10.4477 12 11V15C12 15.5523 11.5523 16 11 16C10.4477 16 10 15.5523 10 15V11C10 10.4477 10.4477 10 11 10Z" fill="" />
  <path d="M11 6C10.4477 6 10 6.44772 10 7C10 7.55228 10.4477 8 11 8H11.01C11.5623 8 12.01 7.55228 12.01 7C12.01 6.44772 11.5623 6 11.01 6H11Z" fill="" />
  <path fill-rule="evenodd" clip-rule="evenodd" d="M3.22183 3.22183C5.28473 1.15893 8.08262 0 11 0C13.9174 0 16.7153 1.15893 18.7782 3.22183C20.8411 5.28473 22 8.08262 22 11C22 13.9174 20.8411 16.7153 18.7782 18.7782C16.7153 20.8411 13.9174 22 11 22C8.08262 22 5.28473 20.8411 3.22183 18.7782C1.15893 16.7153 0 13.9174 0 11C0 8.08262 1.15893 5.28473 3.22183 3.22183ZM11 2C8.61305 2 6.32387 2.94821 4.63604 4.63604C2.94821 6.32387 2 8.61305 2 11C2 13.3869 2.94821 15.6761 4.63604 17.364C6.32387 19.0518 8.61305 20 11 20C13.3869 20 15.6761 19.0518 17.364 17.364C19.0518 15.6761 20 13.3869 20 11C20 8.61305 19.0518 6.32387 17.364 4.63604C15.6761 2.94821 13.3869 2 11 2Z" fill="" />
</svg>